<?xml version="1.0" encoding="iso-8859-1"?>
<!-- Generator: Adobe Illustrator 16.0.0, SVG Export Plug-In . SVG Version: 6.00 Build 0)  -->
<!DOCTYPE svg PUBLIC "-//W3C//DTD SVG 1.1//EN" "http://www.w3.org/Graphics/SVG/1.1/DTD/svg11.dtd">
<svg version="1.1" id="Layer_1" xmlns="http://www.w3.org/2000/svg" xmlns:xlink="http://www.w3.org/1999/xlink" x="0px" y="0px"
	 width="30.083px" height="24.69px" viewBox="0 0 30.083 24.69" style="enable-background:new 0 0 30.083 24.69;"
	 xml:space="preserve">
<g>
	<rect x="24.998" y="9.188" width="2.902" height="0.699"/>
	<rect x="19.431" y="9.188" width="2.902" height="0.699"/>
	<rect x="13.439" y="9.188" width="2.902" height="0.699"/>
	<rect x="7.898" y="9.188" width="2.902" height="0.699"/>
	<rect x="1.907" y="9.188" width="2.902" height="0.699"/>
	<path d="M26.45,1.154V0h-2.075v1.154h-3.294V0h-2.074v1.154h-2.44V0h-2.074v1.154h-3.417V0H9.002v1.154H5.708V0H3.634v1.154H0
		V24.69h30.083V1.154H26.45z M3.634,2.443v1.345C3.44,4.025,3.319,4.325,3.319,4.655c0,0.76,0.617,1.375,1.376,1.375
		c0.76,0,1.376-0.616,1.376-1.375c0-0.358-0.141-0.681-0.364-0.926V2.443h3.293v1.51C8.794,4.194,8.663,4.505,8.663,4.849
		c0,0.76,0.616,1.376,1.376,1.376s1.377-0.616,1.377-1.376c0-0.344-0.131-0.655-0.34-0.896v-1.51h3.417v1.51
		c-0.208,0.241-0.339,0.552-0.339,0.896c0,0.76,0.616,1.376,1.376,1.376c0.76,0,1.376-0.616,1.376-1.376
		c0-0.344-0.131-0.655-0.339-0.896v-1.51h2.44v1.51c-0.209,0.241-0.339,0.552-0.339,0.896c0,0.76,0.616,1.376,1.375,1.376
		c0.761,0,1.377-0.616,1.377-1.376c0-0.344-0.13-0.655-0.339-0.896v-1.51h3.294v1.51c-0.208,0.241-0.339,0.552-0.339,0.896
		c0,0.76,0.616,1.376,1.377,1.376c0.76,0,1.376-0.616,1.376-1.376c0-0.344-0.131-0.655-0.339-0.896v-1.51h2.344v8.629H23.91h-0.321
		h-5.54h-0.152h-5.54h-0.322H6.497H6.344H1.29V2.443H3.634z M1.29,14.405h4.885v2.688H1.29V14.405z M6.666,14.405h5.368v2.688H6.666
		V14.405z M12.356,14.405L12.356,14.405h5.369v2.688h-5.368h0V14.405z M18.218,14.405h5.37v2.688h-5.37V14.405z M23.91,14.405h4.884
		v2.688H23.91V14.405z M28.794,14.082h-4.883v-2.688h4.883V14.082z M23.588,14.082h-5.37v-2.688h5.37V14.082z M17.726,14.082h-5.369
		v-2.688h5.369V14.082z M12.035,14.082L12.035,14.082H6.667v-2.688h5.368V14.082z M6.174,14.082H1.29v-2.688h4.885V14.082z
		 M1.29,17.415h4.885v2.688H1.29V17.415z M6.667,17.415h5.367h0.001v2.688H6.667V17.415z M12.357,17.415h5.369v2.688h-5.369V17.415z
		 M18.218,17.415h5.37v2.688h-5.37V17.415z M23.911,17.415h4.883v2.688h-4.883V17.415z M1.29,23.401v-2.976h5.055h0.153h5.538h0.322
		h5.54h0.152h5.54h0.321h4.884v2.976H1.29z"/>
</g>
<g>
</g>
<g>
</g>
<g>
</g>
<g>
</g>
<g>
</g>
<g>
</g>
<g>
</g>
<g>
</g>
<g>
</g>
<g>
</g>
<g>
</g>
<g>
</g>
<g>
</g>
<g>
</g>
<g>
</g>
</svg>
