<?xml version="1.0" encoding="utf-8"?>
<!-- Generator: Adobe Illustrator 17.0.0, SVG Export Plug-In . SVG Version: 6.00 Build 0)  -->
<!DOCTYPE svg PUBLIC "-//W3C//DTD SVG 1.1//EN" "http://www.w3.org/Graphics/SVG/1.1/DTD/svg11.dtd">
<svg version="1.1" id="Capa_1" xmlns="http://www.w3.org/2000/svg" xmlns:xlink="http://www.w3.org/1999/xlink" x="0px" y="0px"
	 width="64px" height="64px" viewBox="0 0 64 64" enable-background="new 0 0 64 64" xml:space="preserve">
<path fill="#1D1D1B" d="M30.833,39.259c4.448,0,8.053,3.605,8.053,8.053s-3.605,8.053-8.053,8.053s-8.053-3.605-8.053-8.053
	S26.385,39.259,30.833,39.259z M45.719,36.877c1.562-1.562,1.562-4.095,0-5.657c-8.208-8.208-21.564-8.208-29.772,0
	c-1.562,1.562-1.562,4.095,0,5.657c1.562,1.562,4.095,1.562,5.657,0c5.089-5.087,13.369-5.088,18.459,0
	c0.78,0.781,1.805,1.172,2.828,1.172S44.938,37.658,45.719,36.877z M11.162,26.562c5.259-5.26,12.246-8.156,19.671-8.156
	s14.412,2.896,19.672,8.156c1.562,1.562,4.096,1.562,5.656,0c1.562-1.562,1.562-4.095,0-5.657
	c-6.77-6.771-15.765-10.499-25.328-10.499c-9.562,0-18.558,3.729-25.329,10.499c-1.562,1.562-1.562,4.095,0,5.657
	c0.781,0.781,1.805,1.171,2.829,1.171S10.38,27.342,11.162,26.562z"/>
</svg>
